solid 
 facet normal -1.000000e+00 -1.308477e-15 -2.040631e-14
   outer loop
     vertex -1.280625e-01 -4.000000e-01  1.325000e-01
     vertex -1.280625e-01  3.000000e-01  9.849632e-02
     vertex -1.280625e-01 -4.000000e-01  9.849632e-02
   endloop
 endfacet
 facet normal -1.000000e+00  9.912706e-16  2.693632e-14
   outer loop
     vertex -1.280625e-01 -4.000000e-01  1.325000e-01
     vertex -1.280625e-01  3.000000e-01  1.325000e-01
     vertex -1.280625e-01  3.000000e-01  9.849632e-02
   endloop
 endfacet
 facet normal  0.000000e+00  0.000000e+00 -1.000000e+00
   outer loop
     vertex -1.325000e-01  3.000000e-01  1.325000e-01
     vertex -4.179403e-01  4.154403e-02  1.325000e-01
     vertex -4.113169e-01  8.496107e-02  1.325000e-01
   endloop
 endfacet
 facet normal  0.000000e+00  0.000000e+00 -1.000000e+00
   outer loop
     vertex -1.325000e-01  3.000000e-01  1.325000e-01
     vertex -4.113169e-01  8.496107e-02  1.325000e-01
     vertex -4.001959e-01  1.274491e-01  1.325000e-01
   endloop
 endfacet
 facet normal  0.000000e+00  0.000000e+00 -1.000000e+00
   outer loop
     vertex -1.325000e-01  3.000000e-01  1.325000e-01
     vertex -4.001959e-01  1.274491e-01  1.325000e-01
     vertex -3.846987e-01  1.685434e-01  1.325000e-01
   endloop
 endfacet
 facet normal  0.000000e+00  0.000000e+00 -1.000000e+00
   outer loop
     vertex -1.325000e-01  3.000000e-01  1.325000e-01
     vertex -3.846987e-01  1.685434e-01  1.325000e-01
     vertex -3.649950e-01  2.077948e-01  1.325000e-01
   endloop
 endfacet
 facet normal  0.000000e+00  0.000000e+00 -1.000000e+00
   outer loop
     vertex -1.325000e-01  3.000000e-01  1.325000e-01
     vertex -3.649950e-01  2.077948e-01  1.325000e-01
     vertex -3.413000e-01  2.447739e-01  1.325000e-01
   endloop
 endfacet
 facet normal  0.000000e+00  0.000000e+00 -1.000000e+00
   outer loop
     vertex -1.325000e-01  3.000000e-01  1.325000e-01
     vertex -3.413000e-01  2.447739e-01  1.325000e-01
     vertex -3.138730e-01  2.790765e-01  1.325000e-01
   endloop
 endfacet
 facet normal -0.000000e+00  0.000000e+00 -1.000000e+00
   outer loop
     vertex -1.325000e-01  3.000000e-01  1.325000e-01
     vertex -3.138730e-01  2.790765e-01  1.325000e-01
     vertex -2.830139e-01  3.103275e-01  1.325000e-01
   endloop
 endfacet
 facet normal  0.000000e+00  0.000000e+00 -1.000000e+00
   outer loop
     vertex -1.325000e-01  3.000000e-01  1.325000e-01
     vertex -2.830139e-01  3.103275e-01  1.325000e-01
     vertex -2.490600e-01  3.381850e-01  1.325000e-01
   endloop
 endfacet
 facet normal  0.000000e+00  0.000000e+00 -1.000000e+00
   outer loop
     vertex -1.325000e-01  3.000000e-01  1.325000e-01
     vertex -2.490600e-01  3.381850e-01  1.325000e-01
     vertex -2.123827e-01  3.623446e-01  1.325000e-01
   endloop
 endfacet
 facet normal -1.351605e-15  1.339806e-30 -1.000000e+00
   outer loop
     vertex -1.280625e-01  3.000000e-01  1.325000e-01
     vertex -1.280625e-01 -4.000000e-01  1.325000e-01
     vertex -1.691330e-01 -3.844399e-01  1.325000e-01
   endloop
 endfacet
 facet normal -3.966987e-17 -7.872406e-17 -1.000000e+00
   outer loop
     vertex -1.280625e-01  3.000000e-01  1.325000e-01
     vertex -1.691330e-01 -3.844399e-01  1.325000e-01
     vertex -2.083541e-01 -3.646760e-01  1.325000e-01
   endloop
 endfacet
 facet normal -4.982529e-17 -7.749731e-17 -1.000000e+00
   outer loop
     vertex -1.280625e-01  3.000000e-01  1.325000e-01
     vertex -2.083541e-01 -3.646760e-01  1.325000e-01
     vertex -2.452969e-01 -3.409244e-01  1.325000e-01
   endloop
 endfacet
 facet normal -6.058083e-17 -7.552996e-17 -1.000000e+00
   outer loop
     vertex -1.280625e-01  3.000000e-01  1.325000e-01
     vertex -2.452969e-01 -3.409244e-01  1.325000e-01
     vertex -2.795574e-01 -3.134448e-01  1.325000e-01
   endloop
 endfacet
 facet normal -7.201517e-17 -7.270616e-17 -1.000000e+00
   outer loop
     vertex -1.280625e-01  3.000000e-01  1.325000e-01
     vertex -2.795574e-01 -3.134448e-01  1.325000e-01
     vertex -3.107610e-01 -2.825378e-01  1.325000e-01
   endloop
 endfacet
 facet normal -8.421616e-17 -6.887962e-17 -1.000000e+00
   outer loop
     vertex -1.280625e-01  3.000000e-01  1.325000e-01
     vertex -3.107610e-01 -2.825378e-01  1.325000e-01
     vertex -3.385665e-01 -2.485412e-01  1.325000e-01
   endloop
 endfacet
 facet normal -9.728107e-17 -6.386594e-17 -1.000000e+00
   outer loop
     vertex -1.280625e-01  3.000000e-01  1.325000e-01
     vertex -3.385665e-01 -2.485412e-01  1.325000e-01
     vertex -3.626697e-01 -2.118269e-01  1.325000e-01
   endloop
 endfacet
 facet normal -1.113161e-16 -5.743268e-17 -1.000000e+00
   outer loop
     vertex -1.280625e-01  3.000000e-01  1.325000e-01
     vertex -3.626697e-01 -2.118269e-01  1.325000e-01
     vertex -3.828073e-01 -1.727963e-01  1.325000e-01
   endloop
 endfacet
 facet normal -1.264342e-16 -4.928697e-17 -1.000000e+00
   outer loop
     vertex -1.280625e-01  3.000000e-01  1.325000e-01
     vertex -3.828073e-01 -1.727963e-01  1.325000e-01
     vertex -3.987589e-01 -1.318763e-01  1.325000e-01
   endloop
 endfacet
 facet normal -1.427508e-16 -3.905983e-17 -1.000000e+00
   outer loop
     vertex -1.280625e-01  3.000000e-01  1.325000e-01
     vertex -3.987589e-01 -1.318763e-01  1.325000e-01
     vertex -4.103501e-01 -8.951411e-02  1.325000e-01
   endloop
 endfacet
 facet normal -1.603749e-16 -2.628740e-17 -1.000000e+00
   outer loop
     vertex -1.280625e-01  3.000000e-01  1.325000e-01
     vertex -4.103501e-01 -8.951411e-02  1.325000e-01
     vertex -4.174542e-01 -4.617314e-02  1.325000e-01
   endloop
 endfacet
 facet normal -1.793922e-16 -1.038942e-17 -1.000000e+00
   outer loop
     vertex -1.280625e-01  3.000000e-01  1.325000e-01
     vertex -4.174542e-01 -4.617314e-02  1.325000e-01
     vertex -4.199936e-01 -2.327278e-03  1.325000e-01
   endloop
 endfacet
 facet normal -1.998374e-16  9.352735e-18 -1.000000e+00
   outer loop
     vertex -1.280625e-01  3.000000e-01  1.325000e-01
     vertex -4.199936e-01 -2.327278e-03  1.325000e-01
     vertex -4.179403e-01  4.154403e-02  1.325000e-01
   endloop
 endfacet
 facet normal -1.250951e-14  1.381558e-14 -1.000000e+00
   outer loop
     vertex -1.280625e-01  3.000000e-01  1.325000e-01
     vertex -4.179403e-01  4.154403e-02  1.325000e-01
     vertex -1.325000e-01  3.000000e-01  1.325000e-01
   endloop
 endfacet
 facet normal  0.000000e+00 -0.000000e+00 -1.000000e+00
   outer loop
     vertex -1.733831e-01  3.825419e-01  1.325000e-01
     vertex -1.325000e-01  3.000000e-01  1.325000e-01
     vertex -2.123827e-01  3.623446e-01  1.325000e-01
   endloop
 endfacet
 facet normal  0.000000e+00  0.000000e+00 -1.000000e+00
   outer loop
     vertex -1.324875e-01  3.985562e-01  1.325000e-01
     vertex -1.325000e-01  3.000000e-01  1.325000e-01
     vertex -1.733831e-01  3.825419e-01  1.325000e-01
   endloop
 endfacet
 facet normal -9.382717e-01  4.455454e-16 -3.458991e-01
   outer loop
     vertex -1.280625e-01 -4.000000e-01  9.849632e-02
     vertex -1.280625e-01  3.000000e-01  9.849632e-02
     vertex -1.194897e-01  3.000000e-01  7.524218e-02
   endloop
 endfacet
 facet normal -8.574413e-01  3.234243e-16 -5.145818e-01
   outer loop
     vertex -1.194897e-01 -4.000000e-01  7.524218e-02
     vertex -1.194897e-01  3.000000e-01  7.524218e-02
     vertex -1.067363e-01  3.000000e-01  5.399133e-02
   endloop
 endfacet
 facet normal -9.382717e-01 -4.642117e-16 -3.458991e-01
   outer loop
     vertex -1.194897e-01 -4.000000e-01  7.524218e-02
     vertex -1.280625e-01 -4.000000e-01  9.849632e-02
     vertex -1.194897e-01  3.000000e-01  7.524218e-02
   endloop
 endfacet
 facet normal -7.466112e-01  2.922724e-16 -6.652606e-01
   outer loop
     vertex -1.067363e-01 -4.000000e-01  5.399133e-02
     vertex -1.067363e-01  3.000000e-01  5.399133e-02
     vertex -9.024847e-02  3.000000e-01  3.548730e-02
   endloop
 endfacet
 facet normal -8.574413e-01 -3.566568e-16 -5.145818e-01
   outer loop
     vertex -1.067363e-01 -4.000000e-01  5.399133e-02
     vertex -1.194897e-01 -4.000000e-01  7.524218e-02
     vertex -1.067363e-01  3.000000e-01  5.399133e-02
   endloop
 endfacet
 facet normal -6.096591e-01  2.056653e-16 -7.926637e-01
   outer loop
     vertex -9.024847e-02 -4.000000e-01  3.548730e-02
     vertex -9.024847e-02  3.000000e-01  3.548730e-02
     vertex -7.060307e-02  3.000000e-01  2.037750e-02
   endloop
 endfacet
 facet normal -7.466112e-01 -2.931715e-16 -6.652606e-01
   outer loop
     vertex -9.024847e-02 -4.000000e-01  3.548730e-02
     vertex -1.067363e-01 -4.000000e-01  5.399133e-02
     vertex -9.024847e-02  3.000000e-01  3.548730e-02
   endloop
 endfacet
 facet normal -4.513766e-01  1.596970e-16 -8.923335e-01
   outer loop
     vertex -7.060307e-02 -4.000000e-01  2.037750e-02
     vertex -7.060307e-02  3.000000e-01  2.037750e-02
     vertex -4.848746e-02  3.000000e-01  9.190567e-03
   endloop
 endfacet
 facet normal -6.096591e-01 -1.932820e-16 -7.926637e-01
   outer loop
     vertex -7.060307e-02 -4.000000e-01  2.037750e-02
     vertex -9.024847e-02 -4.000000e-01  3.548730e-02
     vertex -7.060307e-02  3.000000e-01  2.037750e-02
   endloop
 endfacet
 facet normal -2.773017e-01  7.603419e-17 -9.607829e-01
   outer loop
     vertex -4.848746e-02 -4.000000e-01  9.190567e-03
     vertex -4.848746e-02  3.000000e-01  9.190567e-03
     vertex -2.467539e-02  3.000000e-01  2.317916e-03
   endloop
 endfacet
 facet normal -4.513766e-01 -1.292071e-16 -8.923335e-01
   outer loop
     vertex -4.848746e-02 -4.000000e-01  9.190567e-03
     vertex -7.060307e-02 -4.000000e-01  2.037750e-02
     vertex -4.848746e-02  3.000000e-01  9.190567e-03
   endloop
 endfacet
 facet normal -2.773017e-01 -4.436846e-17 -9.607829e-01
   outer loop
     vertex -2.467539e-02 -4.000000e-01  2.317916e-03
     vertex -4.848746e-02 -4.000000e-01  9.190567e-03
     vertex -2.467539e-02  3.000000e-01  2.317916e-03
   endloop
 endfacet
 facet normal -9.352462e-02  5.068497e-17 -9.956170e-01
   outer loop
     vertex -3.855041e-16 -4.000000e-01  0.000000e+00
     vertex -2.467539e-02  3.000000e-01  2.317916e-03
     vertex -6.144303e-18  3.000000e-01  0.000000e+00
   endloop
 endfacet
 facet normal -9.352462e-02  1.171768e-17 -9.956170e-01
   outer loop
     vertex -3.855041e-16 -4.000000e-01  0.000000e+00
     vertex -2.467539e-02 -4.000000e-01  2.317916e-03
     vertex -2.467539e-02  3.000000e-01  2.317916e-03
   endloop
 endfacet
 facet normal  9.352462e-02  1.409092e-16 -9.956170e-01
   outer loop
     vertex  2.467539e-02 -4.000000e-01  2.317916e-03
     vertex -6.144303e-18  3.000000e-01  0.000000e+00
     vertex  2.467539e-02  3.000000e-01  2.317916e-03
   endloop
 endfacet
 facet normal  9.352462e-02 -5.038603e-17 -9.956170e-01
   outer loop
     vertex  2.467539e-02 -4.000000e-01  2.317916e-03
     vertex -3.855041e-16 -4.000000e-01  0.000000e+00
     vertex -6.144303e-18  3.000000e-01  0.000000e+00
   endloop
 endfacet
 facet normal  2.773017e-01  2.019345e-16 -9.607829e-01
   outer loop
     vertex  4.848746e-02 -4.000000e-01  9.190567e-03
     vertex  2.467539e-02  3.000000e-01  2.317916e-03
     vertex  4.848746e-02  3.000000e-01  9.190567e-03
   endloop
 endfacet
 facet normal  2.773017e-01 -5.624487e-17 -9.607829e-01
   outer loop
     vertex  4.848746e-02 -4.000000e-01  9.190567e-03
     vertex  2.467539e-02 -4.000000e-01  2.317916e-03
     vertex  2.467539e-02  3.000000e-01  2.317916e-03
   endloop
 endfacet
 facet normal  4.513766e-01  2.977123e-16 -8.923335e-01
   outer loop
     vertex  7.060307e-02 -4.000000e-01  2.037750e-02
     vertex  4.848746e-02  3.000000e-01  9.190567e-03
     vertex  7.060307e-02  3.000000e-01  2.037750e-02
   endloop
 endfacet
 facet normal  4.513766e-01 -1.499863e-16 -8.923335e-01
   outer loop
     vertex  7.060307e-02 -4.000000e-01  2.037750e-02
     vertex  4.848746e-02 -4.000000e-01  9.190567e-03
     vertex  4.848746e-02  3.000000e-01  9.190567e-03
   endloop
 endfacet
 facet normal  6.096591e-01  3.652823e-16 -7.926637e-01
   outer loop
     vertex  9.024847e-02 -4.000000e-01  3.548730e-02
     vertex  7.060307e-02  3.000000e-01  2.037750e-02
     vertex  9.024847e-02  3.000000e-01  3.548730e-02
   endloop
 endfacet
 facet normal  6.096591e-01 -2.124806e-16 -7.926637e-01
   outer loop
     vertex  9.024847e-02 -4.000000e-01  3.548730e-02
     vertex  7.060307e-02 -4.000000e-01  2.037750e-02
     vertex  7.060307e-02  3.000000e-01  2.037750e-02
   endloop
 endfacet
 facet normal  7.466112e-01  4.629773e-16 -6.652606e-01
   outer loop
     vertex  1.067363e-01 -4.000000e-01  5.399133e-02
     vertex  9.024847e-02  3.000000e-01  3.548730e-02
     vertex  1.067363e-01  3.000000e-01  5.399133e-02
   endloop
 endfacet
 facet normal  7.466112e-01 -3.030974e-16 -6.652606e-01
   outer loop
     vertex  1.067363e-01 -4.000000e-01  5.399133e-02
     vertex  9.024847e-02 -4.000000e-01  3.548730e-02
     vertex  9.024847e-02  3.000000e-01  3.548730e-02
   endloop
 endfacet
 facet normal  8.574413e-01  5.275298e-16 -5.145818e-01
   outer loop
     vertex  1.194897e-01 -4.000000e-01  7.524218e-02
     vertex  1.067363e-01  3.000000e-01  5.399133e-02
     vertex  1.194897e-01  3.000000e-01  7.524218e-02
   endloop
 endfacet
 facet normal  8.574413e-01 -3.624670e-16 -5.145818e-01
   outer loop
     vertex  1.194897e-01 -4.000000e-01  7.524218e-02
     vertex  1.067363e-01 -4.000000e-01  5.399133e-02
     vertex  1.067363e-01  3.000000e-01  5.399133e-02
   endloop
 endfacet
 facet normal  9.382717e-01  5.268095e-16 -3.458991e-01
   outer loop
     vertex  1.280625e-01 -4.000000e-01  9.849632e-02
     vertex  1.194897e-01  3.000000e-01  7.524218e-02
     vertex  1.280625e-01  3.000000e-01  9.849632e-02
   endloop
 endfacet
 facet normal  9.382717e-01 -4.562084e-16 -3.458991e-01
   outer loop
     vertex  1.280625e-01 -4.000000e-01  9.849632e-02
     vertex  1.194897e-01 -4.000000e-01  7.524218e-02
     vertex  1.194897e-01  3.000000e-01  7.524218e-02
   endloop
 endfacet
 facet normal -4.346736e-30 -5.013892e-15 -1.000000e+00
   outer loop
     vertex  1.280625e-01 -4.000000e-01  1.325000e-01
     vertex  8.614086e-02 -4.110715e-01  1.325000e-01
     vertex -1.280625e-01 -4.000000e-01  1.325000e-01
   endloop
 endfacet
 facet normal  1.947108e-16 -1.246758e-15 -1.000000e+00
   outer loop
     vertex  8.614086e-02 -4.110715e-01  1.325000e-01
     vertex  4.330117e-02 -4.177619e-01  1.325000e-01
     vertex -1.280625e-01 -4.000000e-01  1.325000e-01
   endloop
 endfacet
 facet normal  1.077868e-16 -2.085386e-15 -1.000000e+00
   outer loop
     vertex  4.330117e-02 -4.177619e-01  1.325000e-01
     vertex -2.540586e-16 -4.200000e-01  1.325000e-01
     vertex -1.280625e-01 -4.000000e-01  1.325000e-01
   endloop
 endfacet
 facet normal -2.144248e-16 -4.148546e-15 -1.000000e+00
   outer loop
     vertex -2.540586e-16 -4.200000e-01  1.325000e-01
     vertex -4.330117e-02 -4.177619e-01  1.325000e-01
     vertex -1.280625e-01 -4.000000e-01  1.325000e-01
   endloop
 endfacet
 facet normal -1.916136e-15 -1.226925e-14 -1.000000e+00
   outer loop
     vertex -4.330117e-02 -4.177619e-01  1.325000e-01
     vertex -8.614086e-02 -4.110715e-01  1.325000e-01
     vertex -1.280625e-01 -4.000000e-01  1.325000e-01
   endloop
 endfacet
 facet normal  1.771306e-14 -1.000000e+00  6.530018e-15
   outer loop
     vertex -1.280625e-01 -4.000000e-01  1.325000e-01
     vertex -1.280625e-01 -4.000000e-01  9.849632e-02
     vertex -1.194897e-01 -4.000000e-01  7.524218e-02
   endloop
 endfacet
 facet normal  8.609804e-15 -1.000000e+00  5.167058e-15
   outer loop
     vertex -1.280625e-01 -4.000000e-01  1.325000e-01
     vertex -1.194897e-01 -4.000000e-01  7.524218e-02
     vertex -1.067363e-01 -4.000000e-01  5.399133e-02
   endloop
 endfacet
 facet normal  4.566169e-15 -1.000000e+00  4.068640e-15
   outer loop
     vertex -1.280625e-01 -4.000000e-01  1.325000e-01
     vertex -1.067363e-01 -4.000000e-01  5.399133e-02
     vertex -9.024847e-02 -4.000000e-01  3.548730e-02
   endloop
 endfacet
 facet normal  2.514106e-15 -1.000000e+00  3.268779e-15
   outer loop
     vertex -1.280625e-01 -4.000000e-01  1.325000e-01
     vertex -9.024847e-02 -4.000000e-01  3.548730e-02
     vertex -7.060307e-02 -4.000000e-01  2.037750e-02
   endloop
 endfacet
 facet normal  1.352303e-15 -1.000000e+00  2.673390e-15
   outer loop
     vertex -1.280625e-01 -4.000000e-01  1.325000e-01
     vertex -7.060307e-02 -4.000000e-01  2.037750e-02
     vertex -4.848746e-02 -4.000000e-01  9.190567e-03
   endloop
 endfacet
 facet normal  6.386792e-16 -1.000000e+00  2.212868e-15
   outer loop
     vertex -1.280625e-01 -4.000000e-01  1.325000e-01
     vertex -4.848746e-02 -4.000000e-01  9.190567e-03
     vertex -2.467539e-02 -4.000000e-01  2.317916e-03
   endloop
 endfacet
 facet normal  1.731386e-16 -1.000000e+00  1.843148e-15
   outer loop
     vertex -1.280625e-01 -4.000000e-01  1.325000e-01
     vertex -2.467539e-02 -4.000000e-01  2.317916e-03
     vertex -3.855041e-16 -4.000000e-01  0.000000e+00
   endloop
 endfacet
 facet normal  0.000000e+00 -1.000000e+00  0.000000e+00
   outer loop
     vertex  1.280625e-01 -4.000000e-01  1.325000e-01
     vertex -3.855041e-16 -4.000000e-01  0.000000e+00
     vertex  2.467539e-02 -4.000000e-01  2.317916e-03
   endloop
 endfacet
 facet normal  0.000000e+00 -1.000000e+00  0.000000e+00
   outer loop
     vertex  1.280625e-01 -4.000000e-01  1.325000e-01
     vertex  2.467539e-02 -4.000000e-01  2.317916e-03
     vertex  4.848746e-02 -4.000000e-01  9.190567e-03
   endloop
 endfacet
 facet normal  0.000000e+00 -1.000000e+00  0.000000e+00
   outer loop
     vertex  1.280625e-01 -4.000000e-01  1.325000e-01
     vertex  4.848746e-02 -4.000000e-01  9.190567e-03
     vertex  7.060307e-02 -4.000000e-01  2.037750e-02
   endloop
 endfacet
 facet normal  0.000000e+00 -1.000000e+00  0.000000e+00
   outer loop
     vertex  1.280625e-01 -4.000000e-01  1.325000e-01
     vertex  7.060307e-02 -4.000000e-01  2.037750e-02
     vertex  9.024847e-02 -4.000000e-01  3.548730e-02
   endloop
 endfacet
 facet normal  0.000000e+00 -1.000000e+00  0.000000e+00
   outer loop
     vertex  1.280625e-01 -4.000000e-01  1.325000e-01
     vertex  9.024847e-02 -4.000000e-01  3.548730e-02
     vertex  1.067363e-01 -4.000000e-01  5.399133e-02
   endloop
 endfacet
 facet normal  0.000000e+00 -1.000000e+00  0.000000e+00
   outer loop
     vertex  1.280625e-01 -4.000000e-01  1.325000e-01
     vertex  1.067363e-01 -4.000000e-01  5.399133e-02
     vertex  1.194897e-01 -4.000000e-01  7.524218e-02
   endloop
 endfacet
 facet normal  0.000000e+00 -1.000000e+00 -0.000000e+00
   outer loop
     vertex  1.280625e-01 -4.000000e-01  1.325000e-01
     vertex  1.194897e-01 -4.000000e-01  7.524218e-02
     vertex  1.280625e-01 -4.000000e-01  9.849632e-02
   endloop
 endfacet
 facet normal -8.669385e-16 -1.000000e+00  8.379042e-16
   outer loop
     vertex  1.280625e-01 -4.000000e-01  1.325000e-01
     vertex -1.280625e-01 -4.000000e-01  1.325000e-01
     vertex -3.855041e-16 -4.000000e-01  0.000000e+00
   endloop
 endfacet
 facet normal  9.986201e-01 -5.251549e-02 -2.877967e-19
   outer loop
     vertex  4.176834e-01 -4.405214e-02  1.325000e-01
     vertex  4.200000e-01  1.006164e-17  1.325000e-01
     vertex  4.200000e-01  0.000000e+00  1.200000e+00
   endloop
 endfacet
 facet normal  9.985827e-01 -5.322217e-02  2.924390e-05
   outer loop
     vertex  4.176834e-01 -4.405214e-02  1.325000e-01
     vertex  4.200000e-01  0.000000e+00  1.200000e+00
     vertex  4.176206e-01 -4.464326e-02  1.200000e+00
   endloop
 endfacet
 facet normal  9.872684e-01 -1.590635e-01  5.770071e-05
   outer loop
     vertex  4.107591e-01 -8.761831e-02  1.325000e-01
     vertex  4.176206e-01 -4.464326e-02  1.200000e+00
     vertex  4.105094e-01 -8.878070e-02  1.200000e+00
   endloop
 endfacet
 facet normal  9.876038e-01 -1.569671e-01 -2.885036e-05
   outer loop
     vertex  4.107591e-01 -8.761831e-02  1.325000e-01
     vertex  4.176834e-01 -4.405214e-02  1.325000e-01
     vertex  4.176206e-01 -4.464326e-02  1.200000e+00
   endloop
 endfacet
 facet normal  9.647679e-01 -2.631026e-01  8.537035e-05
   outer loop
     vertex  3.993035e-01 -1.302179e-01  1.325000e-01
     vertex  4.105094e-01 -8.878070e-02  1.200000e+00
     vertex  3.987470e-01 -1.319122e-01  1.200000e+00
   endloop
 endfacet
 facet normal  9.656928e-01 -2.596872e-01 -5.691359e-05
   outer loop
     vertex  3.993035e-01 -1.302179e-01  1.325000e-01
     vertex  4.107591e-01 -8.761831e-02  1.325000e-01
     vertex  4.105094e-01 -8.878070e-02  1.200000e+00
   endloop
 endfacet
 facet normal  9.313362e-01 -3.641606e-01  1.122528e-04
   outer loop
     vertex  3.834430e-01 -1.713810e-01  1.325000e-01
     vertex  3.987470e-01 -1.319122e-01  1.200000e+00
     vertex  3.824666e-01 -1.735491e-01  1.200000e+00
   endloop
 endfacet
 facet normal  9.331287e-01 -3.595425e-01 -8.418963e-05
   outer loop
     vertex  3.834430e-01 -1.713810e-01  1.325000e-01
     vertex  3.993035e-01 -1.302179e-01  1.325000e-01
     vertex  3.987470e-01 -1.319122e-01  1.200000e+00
   endloop
 endfacet
 facet normal  8.873521e-01 -4.610925e-01  1.383479e-04
   outer loop
     vertex  3.633526e-01 -2.106536e-01  1.325000e-01
     vertex  3.824666e-01 -1.735491e-01  1.200000e+00
     vertex  3.618527e-01 -2.132196e-01  1.200000e+00
   endloop
 endfacet
 facet normal  8.902708e-01 -4.554315e-01 -1.106784e-04
   outer loop
     vertex  3.633526e-01 -2.106536e-01  1.325000e-01
     vertex  3.834430e-01 -1.713810e-01  1.325000e-01
     vertex  3.824666e-01 -1.735491e-01  1.200000e+00
   endloop
 endfacet
 facet normal  8.333139e-01 -5.528001e-01  1.636558e-04
   outer loop
     vertex  3.392538e-01 -2.476023e-01  1.325000e-01
     vertex  3.618527e-01 -2.132196e-01  1.200000e+00
     vertex  3.371389e-01 -2.504743e-01  1.200000e+00
   endloop
 endfacet
 facet normal  8.375919e-01 -5.462965e-01 -1.363799e-04
   outer loop
     vertex  3.392538e-01 -2.476023e-01  1.325000e-01
     vertex  3.633526e-01 -2.106536e-01  1.325000e-01
     vertex  3.618527e-01 -2.132196e-01  1.200000e+00
   endloop
 endfacet
 facet normal  7.698340e-01 -6.382442e-01  1.881762e-04
   outer loop
     vertex  3.114125e-01 -2.818195e-01  1.325000e-01
     vertex  3.371389e-01 -2.504743e-01  1.200000e+00
     vertex  3.086051e-01 -2.848910e-01  1.200000e+00
   endloop
 endfacet
 facet normal  7.756731e-01 -6.311349e-01 -1.612941e-04
   outer loop
     vertex  3.114125e-01 -2.818195e-01  1.325000e-01
     vertex  3.392538e-01 -2.476023e-01  1.325000e-01
     vertex  3.371389e-01 -2.504743e-01  1.200000e+00
   endloop
 endfacet
 facet normal  6.976315e-01 -7.164567e-01  2.119093e-04
   outer loop
     vertex  2.801359e-01 -3.129279e-01  1.325000e-01
     vertex  3.086051e-01 -2.848910e-01  1.200000e+00
     vertex  2.765748e-01 -3.160797e-01  1.200000e+00
   endloop
 endfacet
 facet normal  7.051974e-01 -7.090110e-01 -1.854209e-04
   outer loop
     vertex  2.801359e-01 -3.129279e-01  1.325000e-01
     vertex  3.114125e-01 -2.818195e-01  1.325000e-01
     vertex  3.086051e-01 -2.848910e-01  1.200000e+00
   endloop
 endfacet
 facet normal  6.269423e-01 -7.790656e-01 -2.087602e-04
   outer loop
     vertex  2.457690e-01 -3.405842e-01  1.325000e-01
     vertex  2.801359e-01 -3.129279e-01  1.325000e-01
     vertex  2.765748e-01 -3.160797e-01  1.200000e+00
   endloop
 endfacet
 facet normal  6.175246e-01 -7.865515e-01  2.348549e-04
   outer loop
     vertex  2.457690e-01 -3.405842e-01  1.325000e-01
     vertex  2.765748e-01 -3.160797e-01  1.200000e+00
     vertex  2.414107e-01 -3.436872e-01  1.200000e+00
   endloop
 endfacet
 facet normal  5.417712e-01 -8.405260e-01 -2.313120e-04
   outer loop
     vertex  2.086908e-01 -3.644834e-01  1.325000e-01
     vertex  2.457690e-01 -3.405842e-01  1.325000e-01
     vertex  2.414107e-01 -3.436872e-01  1.200000e+00
   endloop
 endfacet
 facet normal  5.304209e-01 -8.477344e-01  2.570129e-04
   outer loop
     vertex  2.086908e-01 -3.644834e-01  1.325000e-01
     vertex  2.414107e-01 -3.436872e-01  1.200000e+00
     vertex  2.035114e-01 -3.674005e-01  1.200000e+00
   endloop
 endfacet
 facet normal  4.373073e-01 -8.993121e-01  2.783835e-04
   outer loop
     vertex  1.693105e-01 -3.843617e-01  1.325000e-01
     vertex  2.035114e-01 -3.674005e-01  1.200000e+00
     vertex  1.633062e-01 -3.869510e-01  1.200000e+00
   endloop
 endfacet
 facet normal  4.506234e-01 -8.927141e-01 -2.530763e-04
   outer loop
     vertex  1.693105e-01 -3.843617e-01  1.325000e-01
     vertex  2.086908e-01 -3.644834e-01  1.325000e-01
     vertex  2.035114e-01 -3.674005e-01  1.200000e+00
   endloop
 endfacet
 facet normal  3.392389e-01 -9.407002e-01  2.989664e-04
   outer loop
     vertex  1.280625e-01 -4.000000e-01  1.325000e-01
     vertex  1.633062e-01 -3.869510e-01  1.200000e+00
     vertex  1.212506e-01 -4.021173e-01  1.200000e+00
   endloop
 endfacet
 facet normal  3.545047e-01 -9.350542e-01 -2.740530e-04
   outer loop
     vertex  1.280625e-01 -4.000000e-01  1.325000e-01
     vertex  1.693105e-01 -3.843617e-01  1.325000e-01
     vertex  1.633062e-01 -3.869510e-01  1.200000e+00
   endloop
 endfacet
 facet normal  2.845056e-01 -9.586744e-01 -8.594338e-05
   outer loop
     vertex  1.114821e-01 -4.049342e-01  2.851297e-01
     vertex  1.280625e-01 -4.000000e-01  1.325000e-01
     vertex  1.212506e-01 -4.021173e-01  1.200000e+00
   endloop
 endfacet
 facet normal  2.647249e-01 -9.643240e-01  1.426616e-04
   outer loop
     vertex  1.095669e-01 -4.054566e-01  3.078184e-01
     vertex  1.114821e-01 -4.049342e-01  2.851297e-01
     vertex  1.212506e-01 -4.021173e-01  1.200000e+00
   endloop
 endfacet
 facet normal  2.739327e-01 -9.617479e-01 -1.333860e-03
   outer loop
     vertex  1.092205e-01 -4.055501e-01  2.647186e-01
     vertex  1.280625e-01 -4.000000e-01  1.325000e-01
     vertex  1.114821e-01 -4.049342e-01  2.851297e-01
   endloop
 endfacet
 facet normal  2.540747e-01 -9.671846e-01  2.928406e-04
   outer loop
     vertex  1.030711e-01 -4.071564e-01  3.297295e-01
     vertex  1.095669e-01 -4.054566e-01  3.078184e-01
     vertex  1.212506e-01 -4.021173e-01  1.200000e+00
   endloop
 endfacet
 facet normal  2.624070e-01 -9.649523e-01 -3.110856e-03
   outer loop
     vertex  1.031932e-01 -4.071255e-01  2.449706e-01
     vertex  1.280625e-01 -4.000000e-01  1.325000e-01
     vertex  1.092205e-01 -4.055501e-01  2.647186e-01
   endloop
 endfacet
 facet normal  2.373267e-01 -9.714297e-01  6.172827e-04
   outer loop
     vertex  9.218074e-02 -4.097593e-01  3.500168e-01
     vertex  1.212506e-01 -4.021173e-01  1.200000e+00
     vertex  7.782126e-02 -4.127273e-01  1.200000e+00
   endloop
 endfacet
 facet normal  2.337775e-01 -9.722898e-01  7.463986e-04
   outer loop
     vertex  9.218074e-02 -4.097593e-01  3.500168e-01
     vertex  1.030711e-01 -4.071564e-01  3.297295e-01
     vertex  1.212506e-01 -4.021173e-01  1.200000e+00
   endloop
 endfacet
 facet normal  2.017629e-01 -9.794344e-01 -1.147673e-05
   outer loop
     vertex  7.728315e-02 -4.128284e-01  3.677598e-01
     vertex  9.218074e-02 -4.097593e-01  3.500168e-01
     vertex  7.782126e-02 -4.127273e-01  1.200000e+00
   endloop
 endfacet
 facet normal  2.553414e-01 -9.668391e-01 -4.792714e-03
   outer loop
     vertex  8.614086e-02 -4.110715e-01  1.325000e-01
     vertex  1.280625e-01 -4.000000e-01  1.325000e-01
     vertex  1.031932e-01 -4.071255e-01  2.449706e-01
   endloop
 endfacet
 facet normal  2.377499e-01 -9.713244e-01 -1.968175e-03
   outer loop
     vertex  8.614086e-02 -4.110715e-01  1.325000e-01
     vertex  1.031932e-01 -4.071255e-01  2.449706e-01
     vertex  9.352977e-02 -4.094535e-01  2.265780e-01
   endloop
 endfacet
 facet normal  2.065216e-01 -9.784419e-01  6.069063e-04
   outer loop
     vertex  8.053995e-02 -4.122054e-01  2.102604e-01
     vertex  8.614086e-02 -4.110715e-01  1.325000e-01
     vertex  9.352977e-02 -4.094535e-01  2.265780e-01
   endloop
 endfacet
 facet normal  1.327255e-01 -9.911526e-01  7.116113e-04
   outer loop
     vertex  5.904649e-02 -4.158287e-01  3.820691e-01
     vertex  7.782126e-02 -4.127273e-01  1.200000e+00
     vertex  3.351016e-02 -4.186610e-01  1.200000e+00
   endloop
 endfacet
 facet normal  1.623483e-01 -9.867335e-01  1.489464e-05
   outer loop
     vertex  5.904649e-02 -4.158287e-01  3.820691e-01
     vertex  7.728315e-02 -4.128284e-01  3.677598e-01
     vertex  7.782126e-02 -4.127273e-01  1.200000e+00
   endloop
 endfacet
 facet normal  1.744663e-01 -9.846615e-01 -1.792662e-03
   outer loop
     vertex  6.473010e-02 -4.149819e-01  1.966723e-01
     vertex  8.614086e-02 -4.110715e-01  1.325000e-01
     vertex  8.053995e-02 -4.122054e-01  2.102604e-01
   endloop
 endfacet
 facet normal  1.186967e-01 -9.929305e-01  2.674657e-04
   outer loop
     vertex  4.052284e-02 -4.180405e-01  3.914354e-01
     vertex  5.904649e-02 -4.158287e-01  3.820691e-01
     vertex  3.351016e-02 -4.186610e-01  1.200000e+00
   endloop
 endfacet
 facet normal  1.305911e-01 -9.914361e-01 -6.587814e-04
   outer loop
     vertex  4.330117e-02 -4.177619e-01  1.325000e-01
     vertex  6.473010e-02 -4.149819e-01  1.966723e-01
     vertex  4.462868e-02 -4.176222e-01  1.853670e-01
   endloop
 endfacet
 facet normal  1.542975e-01 -9.879859e-01 -8.724473e-03
   outer loop
     vertex  4.330117e-02 -4.177619e-01  1.325000e-01
     vertex  8.614086e-02 -4.110715e-01  1.325000e-01
     vertex  6.473010e-02 -4.149819e-01  1.966723e-01
   endloop
 endfacet
 facet normal  7.290831e-02 -9.973386e-01 -1.330392e-04
   outer loop
     vertex  2.073448e-02 -4.194879e-01  3.971624e-01
     vertex  4.052284e-02 -4.180405e-01  3.914354e-01
     vertex  3.351016e-02 -4.186610e-01  1.200000e+00
   endloop
 endfacet
 facet normal  2.662052e-02 -9.996454e-01  6.059216e-04
   outer loop
     vertex  2.073448e-02 -4.194879e-01  3.971624e-01
     vertex  3.351016e-02 -4.186610e-01  1.200000e+00
     vertex -1.118062e-02 -4.198512e-01  1.200000e+00
   endloop
 endfacet
 facet normal  8.007206e-02 -9.967889e-01  6.239119e-04
   outer loop
     vertex  2.277360e-02 -4.193821e-01  1.784543e-01
     vertex  4.330117e-02 -4.177619e-01  1.325000e-01
     vertex  4.462868e-02 -4.176222e-01  1.853670e-01
   endloop
 endfacet
 facet normal  2.516248e-02 -9.996832e-01  5.479435e-04
   outer loop
     vertex  3.518706e-04 -4.199999e-01  3.991236e-01
     vertex  2.073448e-02 -4.194879e-01  3.971624e-01
     vertex -1.118062e-02 -4.198512e-01  1.200000e+00
   endloop
 endfacet
 facet normal  2.712142e-02 -9.996321e-01  1.120812e-15
   outer loop
     vertex -2.540586e-16 -4.200000e-01  1.325000e-01
     vertex  2.277360e-02 -4.193821e-01  1.784543e-01
     vertex -1.084425e-17 -4.200000e-01  1.761241e-01
   endloop
 endfacet
 facet normal  5.161401e-02 -9.985932e-01 -1.215178e-02
   outer loop
     vertex -2.540586e-16 -4.200000e-01  1.325000e-01
     vertex  4.330117e-02 -4.177619e-01  1.325000e-01
     vertex  2.277360e-02 -4.193821e-01  1.784543e-01
   endloop
 endfacet
 facet normal -7.978609e-02 -9.968119e-01  5.524204e-04
   outer loop
     vertex -2.225021e-02 -4.194102e-01  3.968621e-01
     vertex -1.118062e-02 -4.198512e-01  1.200000e+00
     vertex -5.574472e-02 -4.162842e-01  1.200000e+00
   endloop
 endfacet
 facet normal -2.605966e-02 -9.996604e-01 -1.896513e-04
   outer loop
     vertex -2.225021e-02 -4.194102e-01  3.968621e-01
     vertex  3.518706e-04 -4.199999e-01  3.991236e-01
     vertex -1.118062e-02 -4.198512e-01  1.200000e+00
   endloop
 endfacet
 facet normal -2.228033e-02 -9.997518e-01  1.396433e-15
   outer loop
     vertex -1.871073e-02 -4.195830e-01  1.776915e-01
     vertex -2.540586e-16 -4.200000e-01  1.325000e-01
     vertex -1.084425e-17 -4.200000e-01  1.761241e-01
   endloop
 endfacet
 facet normal -7.908795e-02 -9.968675e-01  5.817525e-04
   outer loop
     vertex -4.400753e-02 -4.176881e-01  3.899961e-01
     vertex -2.225021e-02 -4.194102e-01  3.968621e-01
     vertex -5.574472e-02 -4.162842e-01  1.200000e+00
   endloop
 endfacet
 facet normal -6.716892e-02 -9.977349e-01 -3.657158e-03
   outer loop
     vertex -4.330117e-02 -4.177619e-01  1.325000e-01
     vertex -1.871073e-02 -4.195830e-01  1.776915e-01
     vertex -3.691451e-02 -4.183746e-01  1.823587e-01
   endloop
 endfacet
 facet normal -5.161401e-02 -9.985931e-01 -1.215576e-02
   outer loop
     vertex -4.330117e-02 -4.177619e-01  1.325000e-01
     vertex -2.540586e-16 -4.200000e-01  1.325000e-01
     vertex -1.871073e-02 -4.195830e-01  1.776915e-01
   endloop
 endfacet
 facet normal -1.286236e-01 -9.916935e-01 -1.450005e-04
   outer loop
     vertex -6.407285e-02 -4.150839e-01  3.787145e-01
     vertex -4.400753e-02 -4.176881e-01  3.899961e-01
     vertex -5.574472e-02 -4.162842e-01  1.200000e+00
   endloop
 endfacet
 facet normal -1.852887e-01 -9.826839e-01  6.910608e-04
   outer loop
     vertex -8.154514e-02 -4.120077e-01  3.634051e-01
     vertex -5.574472e-02 -4.162842e-01  1.200000e+00
     vertex -9.967721e-02 -4.080006e-01  1.200000e+00
   endloop
 endfacet
 facet normal -1.736676e-01 -9.848043e-01  3.218305e-04
   outer loop
     vertex -8.154514e-02 -4.120077e-01  3.634051e-01
     vertex -6.407285e-02 -4.150839e-01  3.787145e-01
     vertex -5.574472e-02 -4.162842e-01  1.200000e+00
   endloop
 endfacet
 facet normal -2.095629e-01 -9.777952e-01  1.415339e-04
   outer loop
     vertex -9.431827e-02 -4.092726e-01  3.467385e-01
     vertex -8.154514e-02 -4.120077e-01  3.634051e-01
     vertex -9.967721e-02 -4.080006e-01  1.200000e+00
   endloop
 endfacet
 facet normal -1.627040e-01 -9.866657e-01 -4.277339e-03
   outer loop
     vertex -8.614086e-02 -4.110715e-01  1.325000e-01
     vertex -5.778835e-02 -4.160054e-01  1.921369e-01
     vertex -7.621583e-02 -4.130268e-01  2.060107e-01
   endloop
 endfacet
 facet normal -1.542979e-01 -9.879888e-01 -8.383223e-03
   outer loop
     vertex -8.614086e-02 -4.110715e-01  1.325000e-01
     vertex -4.330117e-02 -4.177619e-01  1.325000e-01
     vertex -5.778835e-02 -4.160054e-01  1.921369e-01
   endloop
 endfacet
 facet normal -2.357515e-01 -9.718134e-01 -3.186237e-05
   outer loop
     vertex -1.037504e-01 -4.069838e-01  3.280386e-01
     vertex -9.431827e-02 -4.092726e-01  3.467385e-01
     vertex -9.967721e-02 -4.080006e-01  1.200000e+00
   endloop
 endfacet
 facet normal -2.329235e-01 -9.724942e-01 -1.296601e-03
   outer loop
     vertex -1.024696e-01 -4.073082e-01  2.432497e-01
     vertex -8.614086e-02 -4.110715e-01  1.325000e-01
     vertex -9.132391e-02 -4.099512e-01  2.233236e-01
   endloop
 endfacet
 facet normal -2.886919e-01 -9.574219e-01  4.687038e-04
   outer loop
     vertex -1.095195e-01 -4.054695e-01  3.080687e-01
     vertex -9.967721e-02 -4.080006e-01  1.200000e+00
     vertex -1.424803e-01 -3.950941e-01  1.200000e+00
   endloop
 endfacet
 facet normal -2.540927e-01 -9.671799e-01  5.921803e-05
   outer loop
     vertex -1.095195e-01 -4.054695e-01  3.080687e-01
     vertex -1.037504e-01 -4.069838e-01  3.280386e-01
     vertex -9.967721e-02 -4.080006e-01  1.200000e+00
   endloop
 endfacet
 facet normal -2.735229e-01 -9.618649e-01  1.080950e-03
   outer loop
     vertex -1.114992e-01 -4.049295e-01  2.875603e-01
     vertex -1.095195e-01 -4.054695e-01  3.080687e-01
     vertex -1.424803e-01 -3.950941e-01  1.200000e+00
   endloop
 endfacet
 facet normal -2.894593e-01 -9.571902e-01  4.894526e-04
   outer loop
     vertex -1.280625e-01 -4.000000e-01  1.325000e-01
     vertex -1.114992e-01 -4.049295e-01  2.875603e-01
     vertex -1.424803e-01 -3.950941e-01  1.200000e+00
   endloop
 endfacet
 facet normal -2.553414e-01 -9.668391e-01 -4.794016e-03
   outer loop
     vertex -1.280625e-01 -4.000000e-01  1.325000e-01
     vertex -8.614086e-02 -4.110715e-01  1.325000e-01
     vertex -1.024696e-01 -4.073082e-01  2.432497e-01
   endloop
 endfacet
 facet normal -2.745285e-01 -9.615782e-01 -1.244927e-03
   outer loop
     vertex -1.280625e-01 -4.000000e-01  1.325000e-01
     vertex -1.092640e-01 -4.055384e-01  2.649310e-01
     vertex -1.114992e-01 -4.049295e-01  2.875603e-01
   endloop
 endfacet
 facet normal -2.616761e-01 -9.651504e-01 -3.218706e-03
   outer loop
     vertex -1.280625e-01 -4.000000e-01  1.325000e-01
     vertex -1.024696e-01 -4.073082e-01  2.432497e-01
     vertex -1.092640e-01 -4.055384e-01  2.649310e-01
   endloop
 endfacet
 facet normal -3.542887e-01 -9.351360e-01 -4.874996e-04
   outer loop
     vertex -1.691330e-01 -3.844399e-01  1.325000e-01
     vertex -1.280625e-01 -4.000000e-01  1.325000e-01
     vertex -1.424803e-01 -3.950941e-01  1.200000e+00
   endloop
 endfacet
 facet normal -3.888241e-01 -9.213119e-01  5.127316e-04
   outer loop
     vertex -1.691330e-01 -3.844399e-01  1.325000e-01
     vertex -1.424803e-01 -3.950941e-01  1.200000e+00
     vertex -1.836691e-01 -3.777111e-01  1.200000e+00
   endloop
 endfacet
 facet normal -4.500050e-01 -8.930259e-01 -4.986564e-04
   outer loop
     vertex -2.083541e-01 -3.646760e-01  1.325000e-01
     vertex -1.691330e-01 -3.844399e-01  1.325000e-01
     vertex -1.836691e-01 -3.777111e-01  1.200000e+00
   endloop
 endfacet
 facet normal -4.845508e-01 -8.747630e-01  5.231953e-04
   outer loop
     vertex -2.083541e-01 -3.646760e-01  1.325000e-01
     vertex -1.836691e-01 -3.777111e-01  1.200000e+00
     vertex -2.227768e-01 -3.560485e-01  1.200000e+00
   endloop
 endfacet
 facet normal -5.408004e-01 -8.411508e-01 -5.084271e-04
   outer loop
     vertex -2.452969e-01 -3.409244e-01  1.325000e-01
     vertex -2.083541e-01 -3.646760e-01  1.325000e-01
     vertex -2.227768e-01 -3.560485e-01  1.200000e+00
   endloop
 endfacet
 facet normal -5.747873e-01 -8.183027e-01  5.322729e-04
   outer loop
     vertex -2.452969e-01 -3.409244e-01  1.325000e-01
     vertex -2.227768e-01 -3.560485e-01  1.200000e+00
     vertex -2.593603e-01 -3.303517e-01  1.200000e+00
   endloop
 endfacet
 facet normal -6.256823e-01 -7.800778e-01 -5.168115e-04
   outer loop
     vertex -2.795574e-01 -3.134448e-01  1.325000e-01
     vertex -2.452969e-01 -3.409244e-01  1.325000e-01
     vertex -2.593603e-01 -3.303517e-01  1.200000e+00
   endloop
 endfacet
 facet normal -6.585113e-01 -7.525707e-01  5.399642e-04
   outer loop
     vertex -2.795574e-01 -3.134448e-01  1.325000e-01
     vertex -2.593603e-01 -3.303517e-01  1.200000e+00
     vertex -2.930052e-01 -3.009118e-01  1.200000e+00
   endloop
 endfacet
 facet normal -7.347740e-01 -6.783117e-01  5.462692e-04
   outer loop
     vertex -3.107610e-01 -2.825378e-01  1.325000e-01
     vertex -2.930052e-01 -3.009118e-01  1.200000e+00
     vertex -3.233303e-01 -2.680626e-01  1.200000e+00
   endloop
 endfacet
 facet normal -7.037225e-01 -7.104747e-01 -5.238097e-04
   outer loop
     vertex -3.107610e-01 -2.825378e-01  1.325000e-01
     vertex -2.795574e-01 -3.134448e-01  1.325000e-01
     vertex -2.930052e-01 -3.009118e-01  1.200000e+00
   endloop
 endfacet
 facet normal -7.740676e-01 -6.331028e-01 -5.294215e-04
   outer loop
     vertex -3.385665e-01 -2.485412e-01  1.325000e-01
     vertex -3.107610e-01 -2.825378e-01  1.325000e-01
     vertex -3.233303e-01 -2.680626e-01  1.200000e+00
   endloop
 endfacet
 facet normal -8.027115e-01 -5.963673e-01  5.511879e-04
   outer loop
     vertex -3.385665e-01 -2.485412e-01  1.325000e-01
     vertex -3.233303e-01 -2.680626e-01  1.200000e+00
     vertex -3.499918e-01 -2.321760e-01  1.200000e+00
   endloop
 endfacet
 facet normal -8.359483e-01 -5.488079e-01 -5.336471e-04
   outer loop
     vertex -3.626697e-01 -2.118269e-01  1.325000e-01
     vertex -3.385665e-01 -2.485412e-01  1.325000e-01
     vertex -3.499918e-01 -2.321760e-01  1.200000e+00
   endloop
 endfacet
 facet normal -8.615539e-01 -5.076657e-01  5.547204e-04
   outer loop
     vertex -3.626697e-01 -2.118269e-01  1.325000e-01
     vertex -3.499918e-01 -2.321760e-01  1.200000e+00
     vertex -3.726879e-01 -1.936589e-01  1.200000e+00
   endloop
 endfacet
 facet normal -9.106346e-01 -4.132121e-01  5.568665e-04
   outer loop
     vertex -3.828073e-01 -1.727963e-01  1.325000e-01
     vertex -3.726879e-01 -1.936589e-01  1.200000e+00
     vertex -3.911612e-01 -1.529474e-01  1.200000e+00
   endloop
 endfacet
 facet normal -8.886881e-01 -4.585119e-01 -5.364864e-04
   outer loop
     vertex -3.828073e-01 -1.727963e-01  1.325000e-01
     vertex -3.626697e-01 -2.118269e-01  1.325000e-01
     vertex -3.726879e-01 -1.936589e-01  1.200000e+00
   endloop
 endfacet
 facet normal -9.493975e-01 -3.140767e-01  5.576262e-04
   outer loop
     vertex -3.987589e-01 -1.318763e-01  1.325000e-01
     vertex -3.911612e-01 -1.529474e-01  1.200000e+00
     vertex -4.052025e-01 -1.105031e-01  1.200000e+00
   endloop
 endfacet
 facet normal -9.317102e-01 -3.632022e-01 -5.379393e-04
   outer loop
     vertex -3.987589e-01 -1.318763e-01  1.325000e-01
     vertex -3.828073e-01 -1.727963e-01  1.325000e-01
     vertex -3.911612e-01 -1.529474e-01  1.200000e+00
   endloop
 endfacet
 facet normal -9.774032e-01 -2.113826e-01  5.569997e-04
   outer loop
     vertex -4.103501e-01 -8.951411e-02  1.325000e-01
     vertex -4.052025e-01 -1.105031e-01  1.200000e+00
     vertex -4.146527e-01 -6.680667e-02  1.200000e+00
   endloop
 endfacet
 facet normal -9.645442e-01 -2.639209e-01 -5.380060e-04
   outer loop
     vertex -4.103501e-01 -8.951411e-02  1.325000e-01
     vertex -3.987589e-01 -1.318763e-01  1.325000e-01
     vertex -4.052025e-01 -1.105031e-01  1.200000e+00
   endloop
 endfacet
 facet normal -9.943346e-01 -1.062935e-01  5.549868e-04
   outer loop
     vertex -4.174542e-01 -4.617314e-02  1.325000e-01
     vertex -4.146527e-01 -6.680667e-02  1.200000e+00
     vertex -4.194047e-01 -2.235331e-02  1.200000e+00
   endloop
 endfacet
 facet normal -9.868310e-01 -1.617537e-01 -5.366863e-04
   outer loop
     vertex -4.174542e-01 -4.617314e-02  1.325000e-01
     vertex -4.103501e-01 -8.951411e-02  1.325000e-01
     vertex -4.146527e-01 -6.680667e-02  1.200000e+00
   endloop
 endfacet
 facet normal -9.999998e-01 -1.240404e-15  5.515876e-04
   outer loop
     vertex -4.199936e-01 -2.327278e-03  1.325000e-01
     vertex -4.194047e-01 -2.235331e-02  1.200000e+00
     vertex -4.194047e-01  2.235331e-02  1.200000e+00
   endloop
 endfacet
 facet normal -9.983270e-01 -5.781767e-02 -5.339802e-04
   outer loop
     vertex -4.199936e-01 -2.327278e-03  1.325000e-01
     vertex -4.174542e-01 -4.617314e-02  1.325000e-01
     vertex -4.194047e-01 -2.235331e-02  1.200000e+00
   endloop
 endfacet
 facet normal -9.943347e-01  1.062935e-01  5.468021e-04
   outer loop
     vertex -4.179403e-01  4.154403e-02  1.325000e-01
     vertex -4.194047e-01  2.235331e-02  1.200000e+00
     vertex -4.146527e-01  6.680667e-02  1.200000e+00
   endloop
 endfacet
 facet normal -9.989065e-01  4.675055e-02 -5.298879e-04
   outer loop
     vertex -4.179403e-01  4.154403e-02  1.325000e-01
     vertex -4.199936e-01 -2.327278e-03  1.325000e-01
     vertex -4.194047e-01  2.235331e-02  1.200000e+00
   endloop
 endfacet
 facet normal -9.774032e-01  2.113826e-01  5.406303e-04
   outer loop
     vertex -4.113169e-01  8.496107e-02  1.325000e-01
     vertex -4.146527e-01  6.680667e-02  1.200000e+00
     vertex -4.052025e-01  1.105031e-01  1.200000e+00
   endloop
 endfacet
 facet normal -9.885630e-01  1.508076e-01 -5.244092e-04
   outer loop
     vertex -4.113169e-01  8.496107e-02  1.325000e-01
     vertex -4.179403e-01  4.154403e-02  1.325000e-01
     vertex -4.146527e-01  6.680667e-02  1.200000e+00
   endloop
 endfacet
 facet normal -9.493975e-01  3.140767e-01  5.330723e-04
   outer loop
     vertex -4.001959e-01  1.274491e-01  1.325000e-01
     vertex -4.052025e-01  1.105031e-01  1.200000e+00
     vertex -3.911612e-01  1.529474e-01  1.200000e+00
   endloop
 endfacet
 facet normal -9.674098e-01  2.532155e-01 -5.175443e-04
   outer loop
     vertex -4.001959e-01  1.274491e-01  1.325000e-01
     vertex -4.113169e-01  8.496107e-02  1.325000e-01
     vertex -4.052025e-01  1.105031e-01  1.200000e+00
   endloop
 endfacet
 facet normal -9.106346e-01  4.132121e-01  5.241280e-04
   outer loop
     vertex -3.846987e-01  1.685434e-01  1.325000e-01
     vertex -3.911612e-01  1.529474e-01  1.200000e+00
     vertex -3.726879e-01  1.936589e-01  1.200000e+00
   endloop
 endfacet
 facet normal -9.356780e-01  3.528546e-01 -5.092931e-04
   outer loop
     vertex -3.846987e-01  1.685434e-01  1.325000e-01
     vertex -4.001959e-01  1.274491e-01  1.325000e-01
     vertex -3.911612e-01  1.529474e-01  1.200000e+00
   endloop
 endfacet
 facet normal -8.615540e-01  5.076657e-01  5.137974e-04
   outer loop
     vertex -3.649950e-01  2.077948e-01  1.325000e-01
     vertex -3.726879e-01  1.936589e-01  1.200000e+00
     vertex -3.499918e-01  2.321760e-01  1.200000e+00
   endloop
 endfacet
 facet normal -8.937148e-01  4.486353e-01 -4.996557e-04
   outer loop
     vertex -3.649950e-01  2.077948e-01  1.325000e-01
     vertex -3.846987e-01  1.685434e-01  1.325000e-01
     vertex -3.726879e-01  1.936589e-01  1.200000e+00
   endloop
 endfacet
 facet normal -8.027115e-01  5.963673e-01  5.020807e-04
   outer loop
     vertex -3.413000e-01  2.447739e-01  1.325000e-01
     vertex -3.499918e-01  2.321760e-01  1.200000e+00
     vertex -3.233303e-01  2.680626e-01  1.200000e+00
   endloop
 endfacet
 facet normal -8.419789e-01  5.395102e-01 -4.886321e-04
   outer loop
     vertex -3.413000e-01  2.447739e-01  1.325000e-01
     vertex -3.649950e-01  2.077948e-01  1.325000e-01
     vertex -3.499918e-01  2.321760e-01  1.200000e+00
   endloop
 endfacet
 facet normal -7.347741e-01  6.783118e-01  4.889779e-04
   outer loop
     vertex -3.138730e-01  2.790765e-01  1.325000e-01
     vertex -3.233303e-01  2.680626e-01  1.200000e+00
     vertex -2.930052e-01  3.009118e-01  1.200000e+00
   endloop
 endfacet
 facet normal -7.810362e-01  6.244856e-01 -4.762223e-04
   outer loop
     vertex -3.138730e-01  2.790765e-01  1.325000e-01
     vertex -3.413000e-01  2.447739e-01  1.325000e-01
     vertex -3.233303e-01  2.680626e-01  1.200000e+00
   endloop
 endfacet
 facet normal -6.585113e-01  7.525707e-01  4.744890e-04
   outer loop
     vertex -2.830139e-01  3.103275e-01  1.325000e-01
     vertex -2.930052e-01  3.009118e-01  1.200000e+00
     vertex -2.593603e-01  3.303517e-01  1.200000e+00
   endloop
 endfacet
 facet normal -7.115529e-01  7.026324e-01 -4.624264e-04
   outer loop
     vertex -2.830139e-01  3.103275e-01  1.325000e-01
     vertex -3.138730e-01  2.790765e-01  1.325000e-01
     vertex -2.930052e-01  3.009118e-01  1.200000e+00
   endloop
 endfacet
 facet normal -5.747873e-01  8.183027e-01  4.586140e-04
   outer loop
     vertex -2.490600e-01  3.381850e-01  1.325000e-01
     vertex -2.593603e-01  3.303517e-01  1.200000e+00
     vertex -2.227768e-01  3.560485e-01  1.200000e+00
   endloop
 endfacet
 facet normal -6.342888e-01  7.730960e-01 -4.472445e-04
   outer loop
     vertex -2.490600e-01  3.381850e-01  1.325000e-01
     vertex -2.830139e-01  3.103275e-01  1.325000e-01
     vertex -2.593603e-01  3.303517e-01  1.200000e+00
   endloop
 endfacet
 facet normal -4.845508e-01  8.747630e-01  4.413531e-04
   outer loop
     vertex -2.123827e-01  3.623446e-01  1.325000e-01
     vertex -2.227768e-01  3.560485e-01  1.200000e+00
     vertex -1.836691e-01  3.777111e-01  1.200000e+00
   endloop
 endfacet
 facet normal -5.500890e-01  8.351059e-01 -4.306765e-04
   outer loop
     vertex -2.123827e-01  3.623446e-01  1.325000e-01
     vertex -2.490600e-01  3.381850e-01  1.325000e-01
     vertex -2.227768e-01  3.560485e-01  1.200000e+00
   endloop
 endfacet
 facet normal -3.888241e-01  9.213119e-01  4.227063e-04
   outer loop
     vertex -1.733831e-01  3.825419e-01  1.325000e-01
     vertex -1.836691e-01  3.777111e-01  1.200000e+00
     vertex -1.424803e-01  3.950941e-01  1.200000e+00
   endloop
 endfacet
 facet normal -4.598740e-01  8.879841e-01 -4.127226e-04
   outer loop
     vertex -1.733831e-01  3.825419e-01  1.325000e-01
     vertex -2.123827e-01  3.623446e-01  1.325000e-01
     vertex -1.836691e-01  3.777111e-01  1.200000e+00
   endloop
 endfacet
 facet normal -3.646275e-01  9.311451e-01  3.953229e-03
   outer loop
     vertex -1.314491e-01  3.988999e-01  1.473259e-01
     vertex -1.324875e-01  3.985562e-01  1.325000e-01
     vertex -1.733831e-01  3.825419e-01  1.325000e-01
   endloop
 endfacet
 facet normal -3.632829e-01  9.316788e-01 -4.385782e-04
   outer loop
     vertex -1.314491e-01  3.988999e-01  1.473259e-01
     vertex -1.733831e-01  3.825419e-01  1.325000e-01
     vertex -1.424803e-01  3.950941e-01  1.200000e+00
   endloop
 endfacet
 facet normal -3.106624e-01  9.505203e-01  1.809638e-04
   outer loop
     vertex -1.287600e-01  3.997760e-01  1.619136e-01
     vertex -1.314491e-01  3.988999e-01  1.473259e-01
     vertex -1.424803e-01  3.950941e-01  1.200000e+00
   endloop
 endfacet
 facet normal -2.990166e-01  9.542479e-01  3.516979e-04
   outer loop
     vertex -1.216024e-01  4.020110e-01  1.832357e-01
     vertex -1.287600e-01  3.997760e-01  1.619136e-01
     vertex -1.424803e-01  3.950941e-01  1.200000e+00
   endloop
 endfacet
 facet normal -2.886919e-01  9.574219e-01  5.852940e-04
   outer loop
     vertex -1.216024e-01  4.020110e-01  1.832357e-01
     vertex -1.424803e-01  3.950941e-01  1.200000e+00
     vertex -9.967721e-02  4.080006e-01  1.200000e+00
   endloop
 endfacet
 facet normal -2.772609e-01  9.607946e-01  3.189307e-04
   outer loop
     vertex -1.108182e-01  4.051164e-01  2.031892e-01
     vertex -1.216024e-01  4.020110e-01  1.832357e-01
     vertex -9.967721e-02  4.080006e-01  1.200000e+00
   endloop
 endfacet
 facet normal -2.470340e-01  9.690068e-01 -4.266294e-05
   outer loop
     vertex -9.670195e-02  4.087160e-01  2.210708e-01
     vertex -1.108182e-01  4.051164e-01  2.031892e-01
     vertex -9.967721e-02  4.080006e-01  1.200000e+00
   endloop
 endfacet
 facet normal -2.101657e-01  9.776658e-01  7.571905e-05
   outer loop
     vertex -7.974488e-02  4.123600e-01  2.362380e-01
     vertex -9.670195e-02  4.087160e-01  2.210708e-01
     vertex -9.967721e-02  4.080006e-01  1.200000e+00
   endloop
 endfacet
 facet normal -1.852887e-01  9.826839e-01  6.129194e-04
   outer loop
     vertex -7.974488e-02  4.123600e-01  2.362380e-01
     vertex -9.967721e-02  4.080006e-01  1.200000e+00
     vertex -5.574472e-02  4.162842e-01  1.200000e+00
   endloop
 endfacet
 facet normal -1.644605e-01  9.863837e-01  7.918055e-05
   outer loop
     vertex -5.831668e-02  4.159317e-01  2.493325e-01
     vertex -7.974488e-02  4.123600e-01  2.362380e-01
     vertex -5.574472e-02  4.162842e-01  1.200000e+00
   endloop
 endfacet
 facet normal -1.111047e-01  9.938087e-01 -6.792277e-05
   outer loop
     vertex -3.499564e-02  4.185395e-01  2.581027e-01
     vertex -5.831668e-02  4.159317e-01  2.493325e-01
     vertex -5.574472e-02  4.162842e-01  1.200000e+00
   endloop
 endfacet
 facet normal -7.978609e-02  9.968118e-01  6.291857e-04
   outer loop
     vertex -3.499564e-02  4.185395e-01  2.581027e-01
     vertex -5.574472e-02  4.162842e-01  1.200000e+00
     vertex -1.118062e-02  4.198512e-01  1.200000e+00
   endloop
 endfacet
 facet normal -5.427565e-02  9.985260e-01 -1.820985e-05
   outer loop
     vertex -1.057964e-02  4.198667e-01  2.623602e-01
     vertex -3.499564e-02  4.185395e-01  2.581027e-01
     vertex -1.118062e-02  4.198512e-01  1.200000e+00
   endloop
 endfacet
 facet normal  1.354764e-03  9.999991e-01  1.747082e-05
   outer loop
     vertex  1.171718e-02  4.198365e-01  2.622647e-01
     vertex -1.057964e-02  4.198667e-01  2.623602e-01
     vertex -1.118062e-02  4.198512e-01  1.200000e+00
   endloop
 endfacet
 facet normal  2.662052e-02  9.996454e-01  6.344203e-04
   outer loop
     vertex  1.171718e-02  4.198365e-01  2.622647e-01
     vertex -1.118062e-02  4.198512e-01  1.200000e+00
     vertex  3.351016e-02  4.186610e-01  1.200000e+00
   endloop
 endfacet
 facet normal  5.415154e-02  9.985327e-01 -6.795950e-06
   outer loop
     vertex  3.375582e-02  4.186413e-01  2.584339e-01
     vertex  1.171718e-02  4.198365e-01  2.622647e-01
     vertex  3.351016e-02  4.186610e-01  1.200000e+00
   endloop
 endfacet
 facet normal  1.056451e-01  9.944039e-01  6.725026e-06
   outer loop
     vertex  5.495518e-02  4.163892e-01  2.509136e-01
     vertex  3.375582e-02  4.186413e-01  2.584339e-01
     vertex  3.351016e-02  4.186610e-01  1.200000e+00
   endloop
 endfacet
 facet normal  1.327255e-01  9.911526e-01  6.264011e-04
   outer loop
     vertex  5.495518e-02  4.163892e-01  2.509136e-01
     vertex  3.351016e-02  4.186610e-01  1.200000e+00
     vertex  7.782126e-02  4.127273e-01  1.200000e+00
   endloop
 endfacet
 facet normal  1.568595e-01  9.876209e-01  3.132087e-05
   outer loop
     vertex  7.674696e-02  4.129285e-01  2.384215e-01
     vertex  5.495518e-02  4.163892e-01  2.509136e-01
     vertex  7.782126e-02  4.127273e-01  1.200000e+00
   endloop
 endfacet
 facet normal  2.054478e-01  9.786681e-01 -2.483585e-05
   outer loop
     vertex  9.580055e-02  4.089282e-01  2.220197e-01
     vertex  7.674696e-02  4.129285e-01  2.384215e-01
     vertex  7.782126e-02  4.127273e-01  1.200000e+00
   endloop
 endfacet
 facet normal  2.373267e-01  9.714297e-01  5.893473e-04
   outer loop
     vertex  9.580055e-02  4.089282e-01  2.220197e-01
     vertex  7.782126e-02  4.127273e-01  1.200000e+00
     vertex  1.212506e-01  4.021173e-01  1.200000e+00
   endloop
 endfacet
 facet normal  2.470107e-01  9.690127e-01  3.205072e-04
   outer loop
     vertex  1.113296e-01  4.049762e-01  2.024055e-01
     vertex  9.580055e-02  4.089282e-01  2.220197e-01
     vertex  1.212506e-01  4.021173e-01  1.200000e+00
   endloop
 endfacet
 facet normal  2.787052e-01  9.603767e-01 -1.944236e-05
   outer loop
     vertex  1.227903e-01  4.016498e-01  1.804075e-01
     vertex  1.113296e-01  4.049762e-01  2.024055e-01
     vertex  1.212506e-01  4.021173e-01  1.200000e+00
   endloop
 endfacet
 facet normal  3.008479e-01  9.536721e-01  1.706985e-05
   outer loop
     vertex  1.298644e-01  3.994186e-01  1.569573e-01
     vertex  1.227903e-01  4.016498e-01  1.804075e-01
     vertex  1.212506e-01  4.021173e-01  1.200000e+00
   endloop
 endfacet
 facet normal  3.392388e-01  9.407002e-01  3.676791e-04
   outer loop
     vertex  1.298644e-01  3.994186e-01  1.569573e-01
     vertex  1.212506e-01  4.021173e-01  1.200000e+00
     vertex  1.633062e-01  3.869510e-01  1.200000e+00
   endloop
 endfacet
 facet normal  3.209696e-01  9.470889e-01  1.029787e-03
   outer loop
     vertex  1.324875e-01  3.985562e-01  1.325000e-01
     vertex  1.298644e-01  3.994186e-01  1.569573e-01
     vertex  1.633062e-01  3.869510e-01  1.200000e+00
   endloop
 endfacet
 facet normal  3.644153e-01  9.312365e-01 -3.968270e-04
   outer loop
     vertex  1.732064e-01  3.826219e-01  1.325000e-01
     vertex  1.324875e-01  3.985562e-01  1.325000e-01
     vertex  1.633062e-01  3.869510e-01  1.200000e+00
   endloop
 endfacet
 facet normal  4.373073e-01  8.993121e-01  4.086549e-04
   outer loop
     vertex  1.732064e-01  3.826219e-01  1.325000e-01
     vertex  1.633062e-01  3.869510e-01  1.200000e+00
     vertex  2.035114e-01  3.674005e-01  1.200000e+00
   endloop
 endfacet
 facet normal  5.304209e-01  8.477344e-01  3.822584e-04
   outer loop
     vertex  2.120480e-01  3.625405e-01  1.325000e-01
     vertex  2.035114e-01  3.674005e-01  1.200000e+00
     vertex  2.414107e-01  3.436872e-01  1.200000e+00
   endloop
 endfacet
 facet normal  4.592588e-01  8.883024e-01 -3.715062e-04
   outer loop
     vertex  2.120480e-01  3.625405e-01  1.325000e-01
     vertex  1.732064e-01  3.826219e-01  1.325000e-01
     vertex  2.035114e-01  3.674005e-01  1.200000e+00
   endloop
 endfacet
 facet normal  6.175246e-01  7.865515e-01  3.537105e-04
   outer loop
     vertex  2.485913e-01  3.385297e-01  1.325000e-01
     vertex  2.414107e-01  3.436872e-01  1.200000e+00
     vertex  2.765748e-01  3.160797e-01  1.200000e+00
   endloop
 endfacet
 facet normal  5.491246e-01  8.357404e-01 -3.440340e-04
   outer loop
     vertex  2.485913e-01  3.385297e-01  1.325000e-01
     vertex  2.120480e-01  3.625405e-01  1.325000e-01
     vertex  2.414107e-01  3.436872e-01  1.200000e+00
   endloop
 endfacet
 facet normal  6.976315e-01  7.164567e-01  3.230115e-04
   outer loop
     vertex  2.824402e-01  3.108497e-01  1.325000e-01
     vertex  2.765748e-01  3.160797e-01  1.200000e+00
     vertex  3.086051e-01  2.848910e-01  1.200000e+00
   endloop
 endfacet
 facet normal  6.330386e-01  7.741202e-01 -3.144106e-04
   outer loop
     vertex  2.824402e-01  3.108497e-01  1.325000e-01
     vertex  2.485913e-01  3.385297e-01  1.325000e-01
     vertex  2.765748e-01  3.160797e-01  1.200000e+00
   endloop
 endfacet
 facet normal  7.698340e-01  6.382442e-01  2.901615e-04
   outer loop
     vertex  3.132279e-01  2.798005e-01  1.325000e-01
     vertex  3.086051e-01  2.848910e-01  1.200000e+00
     vertex  3.371389e-01  2.504743e-01  1.200000e+00
   endloop
 endfacet
 facet normal  7.100914e-01  7.041095e-01 -2.826361e-04
   outer loop
     vertex  3.132279e-01  2.798005e-01  1.325000e-01
     vertex  2.824402e-01  3.108497e-01  1.325000e-01
     vertex  3.086051e-01  2.848910e-01  1.200000e+00
   endloop
 endfacet
 facet normal  8.333139e-01  5.528000e-01  2.551607e-04
   outer loop
     vertex  3.406206e-01  2.457186e-01  1.325000e-01
     vertex  3.371389e-01  2.504743e-01  1.200000e+00
     vertex  3.618527e-01  2.132196e-01  1.200000e+00
   endloop
 endfacet
 facet normal  7.794477e-01  6.264673e-01 -2.487106e-04
   outer loop
     vertex  3.406206e-01  2.457186e-01  1.325000e-01
     vertex  3.132279e-01  2.798005e-01  1.325000e-01
     vertex  3.371389e-01  2.504743e-01  1.200000e+00
   endloop
 endfacet
 facet normal  8.873521e-01  4.610925e-01  2.180092e-04
   outer loop
     vertex  3.643214e-01  2.089735e-01  1.325000e-01
     vertex  3.618527e-01  2.132196e-01  1.200000e+00
     vertex  3.824666e-01  1.735491e-01  1.200000e+00
   endloop
 endfacet
 facet normal  8.403559e-01  5.420350e-01 -2.126344e-04
   outer loop
     vertex  3.643214e-01  2.089735e-01  1.325000e-01
     vertex  3.406206e-01  2.457186e-01  1.325000e-01
     vertex  3.618527e-01  2.132196e-01  1.200000e+00
   endloop
 endfacet
 facet normal  9.313362e-01  3.641606e-01  1.787073e-04
   outer loop
     vertex  3.840735e-01  1.699634e-01  1.325000e-01
     vertex  3.824666e-01  1.735491e-01  1.200000e+00
     vertex  3.987470e-01  1.319122e-01  1.200000e+00
   endloop
 endfacet
 facet normal  8.921558e-01  4.517278e-01 -1.744077e-04
   outer loop
     vertex  3.840735e-01  1.699634e-01  1.325000e-01
     vertex  3.643214e-01  2.089735e-01  1.325000e-01
     vertex  3.824666e-01  1.735491e-01  1.200000e+00
   endloop
 endfacet
 facet normal  9.647679e-01  2.631026e-01  1.372552e-04
   outer loop
     vertex  3.996628e-01  1.291111e-01  1.325000e-01
     vertex  3.987470e-01  1.319122e-01  1.200000e+00
     vertex  4.105094e-01  8.878070e-02  1.200000e+00
   endloop
 endfacet
 facet normal  9.342860e-01  3.565244e-01 -1.340307e-04
   outer loop
     vertex  3.996628e-01  1.291111e-01  1.325000e-01
     vertex  3.840735e-01  1.699634e-01  1.325000e-01
     vertex  3.987470e-01  1.319122e-01  1.200000e+00
   endloop
 endfacet
 facet normal  9.872684e-01  1.590635e-01  9.365316e-05
   outer loop
     vertex  4.109202e-01  8.685947e-02  1.325000e-01
     vertex  4.105094e-01  8.878070e-02  1.200000e+00
     vertex  4.176206e-01  4.464326e-02  1.200000e+00
   endloop
 endfacet
 facet normal  9.662898e-01  2.574569e-01 -9.150360e-05
   outer loop
     vertex  4.109202e-01  8.685947e-02  1.325000e-01
     vertex  3.996628e-01  1.291111e-01  1.325000e-01
     vertex  4.105094e-01  8.878070e-02  1.200000e+00
   endloop
 endfacet
 facet normal  9.985827e-01  5.322217e-02  4.790133e-05
   outer loop
     vertex  4.177239e-01  4.366638e-02  1.325000e-01
     vertex  4.176206e-01  4.464326e-02  1.200000e+00
     vertex  4.200000e-01  0.000000e+00  1.200000e+00
   endloop
 endfacet
 facet normal  9.878203e-01  1.555989e-01 -4.682661e-05
   outer loop
     vertex  4.177239e-01  4.366638e-02  1.325000e-01
     vertex  4.109202e-01  8.685947e-02  1.325000e-01
     vertex  4.176206e-01  4.464326e-02  1.200000e+00
   endloop
 endfacet
 facet normal  9.986443e-01  5.205435e-02  4.906344e-19
   outer loop
     vertex  4.200000e-01  1.006164e-17  1.325000e-01
     vertex  4.177239e-01  4.366638e-02  1.325000e-01
     vertex  4.200000e-01  0.000000e+00  1.200000e+00
   endloop
 endfacet
 facet normal -1.986570e-01 -9.800688e-01  7.523245e-04
   outer loop
     vertex -7.621583e-02 -4.130268e-01  2.060107e-01
     vertex -9.132391e-02 -4.099512e-01  2.233236e-01
     vertex -8.614086e-02 -4.110715e-01  1.325000e-01
   endloop
 endfacet
 facet normal -1.118012e-01 -9.937284e-01  2.109264e-03
   outer loop
     vertex -3.691451e-02 -4.183746e-01  1.823587e-01
     vertex -5.778835e-02 -4.160054e-01  1.921369e-01
     vertex -4.330117e-02 -4.177619e-01  1.325000e-01
   endloop
 endfacet
 facet normal -0.000000e+00 -1.000000e+00  0.000000e+00
   outer loop
     vertex -1.280625e-01  3.000000e-01  1.325000e-01
     vertex -1.325000e-01  3.000000e-01  1.325000e-01
     vertex -1.320045e-01  3.000000e-01  1.210515e-01
   endloop
 endfacet
 facet normal  0.000000e+00 -1.000000e+00  0.000000e+00
   outer loop
     vertex -1.280625e-01  3.000000e-01  1.325000e-01
     vertex -1.305216e-01  3.000000e-01  1.096886e-01
     vertex -1.280625e-01  3.000000e-01  9.849632e-02
   endloop
 endfacet
 facet normal  0.000000e+00 -1.000000e+00  0.000000e+00
   outer loop
     vertex -1.280625e-01  3.000000e-01  1.325000e-01
     vertex -1.320045e-01  3.000000e-01  1.210515e-01
     vertex -1.305216e-01  3.000000e-01  1.096886e-01
   endloop
 endfacet
 facet normal  1.803986e-16 -9.486809e-18 -1.000000e+00
   outer loop
     vertex  1.280625e-01  3.000000e-01  1.325000e-01
     vertex  4.200000e-01  1.006164e-17  1.325000e-01
     vertex  4.176834e-01 -4.405214e-02  1.325000e-01
   endloop
 endfacet
 facet normal  1.612273e-16 -2.562504e-17 -1.000000e+00
   outer loop
     vertex  1.280625e-01  3.000000e-01  1.325000e-01
     vertex  4.176834e-01 -4.405214e-02  1.325000e-01
     vertex  4.107591e-01 -8.761831e-02  1.325000e-01
   endloop
 endfacet
 facet normal  1.434648e-16 -3.857953e-17 -1.000000e+00
   outer loop
     vertex  1.280625e-01  3.000000e-01  1.325000e-01
     vertex  4.107591e-01 -8.761831e-02  1.325000e-01
     vertex  3.993035e-01 -1.302179e-01  1.325000e-01
   endloop
 endfacet
 facet normal  1.270256e-16 -4.894404e-17 -1.000000e+00
   outer loop
     vertex  1.280625e-01  3.000000e-01  1.325000e-01
     vertex  3.993035e-01 -1.302179e-01  1.325000e-01
     vertex  3.834430e-01 -1.713810e-01  1.325000e-01
   endloop
 endfacet
 facet normal  1.117998e-16 -5.719290e-17 -1.000000e+00
   outer loop
     vertex  1.280625e-01  3.000000e-01  1.325000e-01
     vertex  3.834430e-01 -1.713810e-01  1.325000e-01
     vertex  3.633526e-01 -2.106536e-01  1.325000e-01
   endloop
 endfacet
 facet normal  9.767073e-17 -6.370307e-17 -1.000000e+00
   outer loop
     vertex  1.280625e-01  3.000000e-01  1.325000e-01
     vertex  3.633526e-01 -2.106536e-01  1.325000e-01
     vertex  3.392538e-01 -2.476023e-01  1.325000e-01
   endloop
 endfacet
 facet normal  8.452352e-17 -6.877349e-17 -1.000000e+00
   outer loop
     vertex  1.280625e-01  3.000000e-01  1.325000e-01
     vertex  3.392538e-01 -2.476023e-01  1.325000e-01
     vertex  3.114125e-01 -2.818195e-01  1.325000e-01
   endloop
 endfacet
 facet normal  7.225042e-17 -7.264114e-17 -1.000000e+00
   outer loop
     vertex  1.280625e-01  3.000000e-01  1.325000e-01
     vertex  3.114125e-01 -2.818195e-01  1.325000e-01
     vertex  2.801359e-01 -3.129279e-01  1.325000e-01
   endloop
 endfacet
 facet normal  6.075264e-17 -7.549385e-17 -1.000000e+00
   outer loop
     vertex  1.280625e-01  3.000000e-01  1.325000e-01
     vertex  2.801359e-01 -3.129279e-01  1.325000e-01
     vertex  2.457690e-01 -3.405842e-01  1.325000e-01
   endloop
 endfacet
 facet normal  4.994098e-17 -7.748048e-17 -1.000000e+00
   outer loop
     vertex  1.280625e-01  3.000000e-01  1.325000e-01
     vertex  2.457690e-01 -3.405842e-01  1.325000e-01
     vertex  2.086908e-01 -3.644834e-01  1.325000e-01
   endloop
 endfacet
 facet normal  3.973561e-17 -7.871880e-17 -1.000000e+00
   outer loop
     vertex  1.280625e-01  3.000000e-01  1.325000e-01
     vertex  2.086908e-01 -3.644834e-01  1.325000e-01
     vertex  1.693105e-01 -3.843617e-01  1.325000e-01
   endloop
 endfacet
 facet normal  1.345788e-15 -1.387402e-30 -1.000000e+00
   outer loop
     vertex  1.280625e-01  3.000000e-01  1.325000e-01
     vertex  1.693105e-01 -3.843617e-01  1.325000e-01
     vertex  1.280625e-01 -4.000000e-01  1.325000e-01
   endloop
 endfacet
 facet normal  6.254756e-15  6.851424e-15 -1.000000e+00
   outer loop
     vertex  4.177239e-01  4.366638e-02  1.325000e-01
     vertex  1.280625e-01  3.000000e-01  1.325000e-01
     vertex  1.325000e-01  3.000000e-01  1.325000e-01
   endloop
 endfacet
 facet normal  2.009090e-16  1.047238e-17 -1.000000e+00
   outer loop
     vertex  4.177239e-01  4.366638e-02  1.325000e-01
     vertex  4.200000e-01  1.006164e-17  1.325000e-01
     vertex  1.280625e-01  3.000000e-01  1.325000e-01
   endloop
 endfacet
 facet normal  1.133589e-16  1.785600e-17 -1.000000e+00
   outer loop
     vertex  4.109202e-01  8.685947e-02  1.325000e-01
     vertex  4.177239e-01  4.366638e-02  1.325000e-01
     vertex  1.325000e-01  3.000000e-01  1.325000e-01
   endloop
 endfacet
 facet normal  1.252331e-16  3.336692e-17 -1.000000e+00
   outer loop
     vertex  3.996628e-01  1.291111e-01  1.325000e-01
     vertex  4.109202e-01  8.685947e-02  1.325000e-01
     vertex  1.325000e-01  3.000000e-01  1.325000e-01
   endloop
 endfacet
 facet normal  1.374369e-16  5.244606e-17 -1.000000e+00
   outer loop
     vertex  3.840735e-01  1.699634e-01  1.325000e-01
     vertex  3.996628e-01  1.291111e-01  1.325000e-01
     vertex  1.325000e-01  3.000000e-01  1.325000e-01
   endloop
 endfacet
 facet normal  1.102109e-16  2.816357e-16 -1.000000e+00
   outer loop
     vertex  1.732064e-01  3.826219e-01  1.325000e-01
     vertex  1.325000e-01  3.000000e-01  1.325000e-01
     vertex  1.324875e-01  3.985562e-01  1.325000e-01
   endloop
 endfacet
 facet normal  1.494391e-16  7.566592e-17 -1.000000e+00
   outer loop
     vertex  3.643214e-01  2.089735e-01  1.325000e-01
     vertex  3.840735e-01  1.699634e-01  1.325000e-01
     vertex  1.325000e-01  3.000000e-01  1.325000e-01
   endloop
 endfacet
 facet normal  1.384218e-16  2.677367e-16 -1.000000e+00
   outer loop
     vertex  2.120480e-01  3.625405e-01  1.325000e-01
     vertex  1.325000e-01  3.000000e-01  1.325000e-01
     vertex  1.732064e-01  3.826219e-01  1.325000e-01
   endloop
 endfacet
 facet normal  1.603361e-16  1.034178e-16 -1.000000e+00
   outer loop
     vertex  3.406206e-01  2.457186e-01  1.325000e-01
     vertex  3.643214e-01  2.089735e-01  1.325000e-01
     vertex  1.325000e-01  3.000000e-01  1.325000e-01
   endloop
 endfacet
 facet normal  1.588469e-16  2.417571e-16 -1.000000e+00
   outer loop
     vertex  2.485913e-01  3.385297e-01  1.325000e-01
     vertex  1.325000e-01  3.000000e-01  1.325000e-01
     vertex  2.120480e-01  3.625405e-01  1.325000e-01
   endloop
 endfacet
 facet normal  1.687342e-16  1.356171e-16 -1.000000e+00
   outer loop
     vertex  3.132279e-01  2.798005e-01  1.325000e-01
     vertex  3.406206e-01  2.457186e-01  1.325000e-01
     vertex  1.325000e-01  3.000000e-01  1.325000e-01
   endloop
 endfacet
 facet normal  1.700627e-16  2.079636e-16 -1.000000e+00
   outer loop
     vertex  2.824402e-01  3.108497e-01  1.325000e-01
     vertex  1.325000e-01  3.000000e-01  1.325000e-01
     vertex  2.485913e-01  3.385297e-01  1.325000e-01
   endloop
 endfacet
 facet normal  1.727183e-16  1.712633e-16 -1.000000e+00
   outer loop
     vertex  2.824402e-01  3.108497e-01  1.325000e-01
     vertex  3.132279e-01  2.798005e-01  1.325000e-01
     vertex  1.325000e-01  3.000000e-01  1.325000e-01
   endloop
 endfacet
 facet normal  1.000000e+00 -1.030921e-15  0.000000e+00
   outer loop
     vertex  1.280625e-01 -4.000000e-01  9.849632e-02
     vertex  1.280625e-01  3.000000e-01  1.325000e-01
     vertex  1.280625e-01 -4.000000e-01  1.325000e-01
   endloop
 endfacet
 facet normal  1.000000e+00 -1.229175e-15  4.081261e-15
   outer loop
     vertex  1.280625e-01 -4.000000e-01  9.849632e-02
     vertex  1.280625e-01  3.000000e-01  9.849632e-02
     vertex  1.280625e-01  3.000000e-01  1.325000e-01
   endloop
 endfacet
 facet normal  0.000000e+00 -1.000000e+00  0.000000e+00
   outer loop
     vertex  1.280625e-01  3.000000e-01  1.325000e-01
     vertex  1.305216e-01  3.000000e-01  1.096886e-01
     vertex  1.320045e-01  3.000000e-01  1.210515e-01
   endloop
 endfacet
 facet normal  0.000000e+00 -1.000000e+00  0.000000e+00
   outer loop
     vertex  1.280625e-01  3.000000e-01  1.325000e-01
     vertex  1.280625e-01  3.000000e-01  9.849632e-02
     vertex  1.305216e-01  3.000000e-01  1.096886e-01
   endloop
 endfacet
 facet normal  0.000000e+00 -1.000000e+00  0.000000e+00
   outer loop
     vertex  1.325000e-01  3.000000e-01  1.325000e-01
     vertex  1.280625e-01  3.000000e-01  1.325000e-01
     vertex  1.320045e-01  3.000000e-01  1.210515e-01
   endloop
 endfacet
endsolid
